<?xml version="1.0" standalone="no"?>
<!DOCTYPE svg PUBLIC "-//W3C//DTD SVG 20010904//EN"
 "http://www.w3.org/TR/2001/REC-SVG-20010904/DTD/svg10.dtd">
<svg version="1.0" xmlns="http://www.w3.org/2000/svg"
 width="1242.000000pt" height="1080.000000pt" viewBox="0 0 1242.000000 1080.000000"
 preserveAspectRatio="xMidYMid meet">

<g transform="translate(0.000000,1080.000000) scale(0.100000,-0.100000)"
fill="#000000" stroke="none">
<path d="M6590 10778 c-866 -4 -2009 -11 -2540 -16 l-965 -7 -61 -105 c-78
-135 -860 -1471 -1017 -1740 -66 -113 -204 -349 -307 -525 -103 -176 -335
-572 -515 -880 -399 -682 -805 -1376 -950 -1625 -59 -102 -117 -198 -129 -215
-12 -16 -39 -58 -60 -92 l-37 -62 267 -483 c550 -995 1255 -2270 1589 -2873
649 -1173 1026 -1856 1104 -1998 l86 -159 715 6 c393 3 1804 11 3135 17 1768
8 2423 14 2432 23 6 6 49 76 96 156 46 80 203 348 347 595 145 248 285 486
310 530 41 71 336 575 795 1360 84 143 207 355 274 470 68 116 138 235 156
265 18 30 140 240 272 465 535 916 764 1306 797 1358 l34 53 -46 85 c-25 46
-527 950 -1115 2009 -588 1059 -1254 2257 -1479 2663 l-410 737 -601 -2 c-331
-1 -1311 -5 -2177 -10z m2546 -555 c26 -49 55 -101 64 -118 82 -147 778 -1400
797 -1435 14 -25 82 -146 150 -270 69 -124 137 -245 151 -270 160 -288 478
-861 507 -915 21 -38 52 -95 70 -125 18 -30 69 -120 113 -200 44 -80 107 -194
141 -254 33 -60 61 -111 61 -112 0 -2 15 -29 34 -61 19 -32 81 -143 138 -248
58 -104 194 -349 302 -542 108 -194 196 -357 196 -363 0 -6 -18 -40 -40 -76
-22 -36 -40 -67 -40 -69 0 -2 -50 -88 -111 -192 -61 -103 -120 -204 -131 -223
-64 -111 -133 -230 -153 -260 -12 -19 -40 -66 -62 -105 -36 -63 -186 -321
-361 -620 -35 -60 -73 -126 -84 -145 -11 -19 -42 -71 -68 -115 -26 -44 -80
-136 -120 -205 -40 -69 -158 -271 -263 -450 -104 -179 -198 -338 -207 -355
-10 -16 -37 -64 -62 -105 -25 -41 -56 -95 -70 -120 -29 -51 -151 -259 -483
-825 -126 -214 -275 -469 -330 -565 -56 -96 -113 -194 -128 -217 -15 -24 -27
-45 -27 -47 0 -3 -14 -27 -31 -55 l-32 -51 -386 0 c-489 0 -3929 -18 -4728
-24 l-601 -5 -62 112 c-35 62 -73 130 -85 152 -12 22 -102 184 -200 360 -98
176 -191 345 -208 375 -27 49 -73 133 -225 405 -68 122 -141 253 -179 325 -20
36 -41 75 -49 86 -10 17 -219 392 -339 609 -93 169 -148 267 -225 405 -48 85
-101 180 -117 210 -43 78 -217 392 -300 540 -85 151 -125 224 -156 282 -13 24
-103 187 -202 363 -98 176 -194 349 -213 385 -19 36 -51 94 -72 130 -108 189
-143 254 -143 264 0 6 36 72 80 146 44 74 113 191 153 260 70 120 109 187 340
580 57 96 126 216 155 265 28 50 91 158 140 240 49 83 126 215 173 295 46 80
93 161 105 180 58 99 197 336 245 420 30 52 92 158 137 235 45 77 108 185 140
240 32 55 77 132 100 170 23 39 67 113 97 165 185 318 426 728 533 910 34 58
73 125 87 150 14 25 57 99 96 165 39 66 104 177 144 247 l73 127 335 2 c184 1
1271 7 2415 13 1144 7 2281 13 2527 14 l446 2 48 -87z"/>
<path d="M7095 10119 c-770 -4 -1901 -11 -2513 -14 l-1113 -7 -41 -72 c-23
-39 -78 -134 -124 -211 -80 -137 -310 -531 -344 -590 -9 -16 -63 -109 -120
-205 -56 -96 -114 -195 -128 -220 -13 -25 -28 -49 -32 -55 -7 -9 -83 -139
-250 -425 -122 -209 -216 -371 -240 -410 -15 -25 -46 -79 -70 -120 -24 -41
-57 -97 -73 -125 -17 -27 -39 -66 -50 -85 -31 -55 -226 -390 -257 -440 -15
-25 -52 -88 -82 -140 -30 -52 -93 -160 -140 -240 -47 -80 -136 -233 -198 -340
-63 -107 -146 -249 -185 -315 -39 -66 -116 -196 -170 -290 -54 -93 -120 -207
-147 -252 l-49 -82 73 -128 c40 -70 84 -150 98 -178 14 -27 44 -81 66 -120 22
-38 107 -191 189 -340 81 -148 165 -299 185 -335 32 -54 123 -219 370 -665 79
-143 172 -310 245 -440 43 -77 100 -178 125 -225 25 -47 135 -245 244 -440
109 -195 279 -501 379 -680 99 -179 208 -374 242 -435 34 -60 151 -271 260
-467 175 -315 201 -357 224 -360 25 -3 970 1 4007 17 l1480 8 15 26 c49 84
274 467 344 586 45 77 90 154 99 170 9 17 30 51 45 77 16 25 40 66 54 90 55
98 178 310 237 408 35 58 89 150 120 205 83 147 93 164 139 238 36 58 106 178
259 442 57 99 66 114 157 270 48 83 111 191 140 240 29 50 81 138 116 197 35
60 91 154 123 210 32 57 82 141 111 188 28 47 84 144 125 215 40 72 99 173
130 225 31 52 91 154 132 225 42 72 137 234 212 362 75 128 136 239 136 246 0
8 -105 203 -233 433 -128 230 -250 451 -272 489 -55 102 -118 213 -247 445
-63 113 -153 275 -200 360 -89 162 -443 799 -653 1175 -68 121 -148 265 -178
320 -78 143 -834 1502 -864 1553 l-25 42 -241 -2 c-133 -1 -872 -5 -1642 -9z
m1846 -321 c39 -73 89 -162 109 -198 41 -72 71 -125 140 -250 25 -47 103 -186
172 -310 69 -124 139 -250 155 -280 51 -93 671 -1209 723 -1300 26 -47 61
-110 78 -140 43 -80 661 -1192 747 -1345 73 -130 310 -557 348 -627 l20 -37
-55 -93 c-31 -51 -110 -185 -176 -298 -66 -113 -166 -284 -222 -380 -101 -172
-223 -381 -262 -450 -20 -35 -139 -236 -253 -430 -34 -58 -142 -242 -240 -410
-98 -168 -206 -352 -240 -410 -35 -58 -75 -128 -91 -157 -16 -29 -89 -155
-163 -280 -74 -125 -172 -293 -219 -373 -171 -294 -222 -380 -354 -605 -75
-126 -172 -293 -217 -370 -45 -77 -85 -146 -90 -153 -6 -12 -284 -15 -1612
-22 -882 -5 -2070 -12 -2640 -15 l-1036 -7 -85 154 c-47 84 -97 173 -111 198
-14 25 -56 101 -94 170 -218 392 -288 519 -306 550 -11 19 -55 98 -97 175 -43
77 -121 219 -175 315 -53 96 -110 198 -125 225 -15 28 -63 113 -106 190 -165
297 -204 368 -204 372 0 2 -11 20 -23 41 -13 20 -51 87 -84 147 -33 61 -125
227 -205 370 -80 143 -160 287 -178 320 -18 33 -86 155 -151 271 -65 117 -131
236 -147 265 -16 30 -129 233 -251 451 -121 218 -221 402 -221 407 0 6 13 32
29 58 15 27 74 127 131 223 56 96 132 227 170 290 70 119 183 313 253 435 22
39 59 102 82 140 72 121 177 300 357 610 191 327 319 546 393 670 26 44 58 98
70 120 12 22 80 139 152 260 71 121 142 243 157 270 16 28 79 136 140 240 120
203 317 539 347 592 10 18 73 126 140 240 68 115 132 225 143 245 l21 38 790
1 c435 1 1285 5 1890 8 605 4 1438 8 1852 9 l752 2 72 -132z"/>
<path d="M4490 9382 c0 -77 -3 -172 -6 -213 l-6 -74 133 -110 c73 -60 160
-132 193 -159 34 -28 108 -91 165 -140 58 -50 117 -100 132 -111 15 -11 210
-173 433 -360 l406 -339 0 -143 c0 -89 -4 -143 -10 -143 -5 0 -18 8 -28 18
-10 9 -43 38 -73 63 -159 136 -225 193 -234 204 -5 6 -37 34 -70 61 -51 42
-216 186 -251 219 -6 5 -33 28 -60 50 -27 22 -85 71 -129 110 -44 38 -93 81
-109 95 -17 14 -49 42 -72 63 l-43 39 -268 -1 -268 0 -3 -1781 -2 -1780 270 0
270 0 0 1485 0 1485 68 -56 c37 -30 127 -105 200 -165 72 -60 142 -118 155
-128 39 -34 252 -210 507 -420 69 -57 129 -107 133 -111 5 -4 10 -16 12 -26 2
-11 4 -335 4 -721 l1 -703 265 0 265 0 1 723 0 722 166 135 c248 203 472 387
528 435 73 63 219 183 305 252 l75 61 3 -1487 2 -1486 265 -3 265 -4 0 1786 0
1786 -262 2 -263 3 -75 -60 c-41 -33 -77 -63 -80 -66 -11 -13 -168 -147 -215
-183 -27 -22 -54 -44 -60 -50 -5 -6 -53 -47 -105 -91 -52 -44 -106 -90 -120
-101 -14 -12 -79 -68 -145 -124 -66 -56 -131 -112 -145 -124 -14 -12 -51 -43
-82 -70 l-58 -48 0 140 0 141 208 173 c114 95 309 256 432 358 124 102 268
221 321 265 53 44 189 157 302 250 113 94 208 179 211 190 8 28 8 405 -1 405
-3 0 -49 -35 -102 -77 -53 -42 -125 -100 -161 -128 -63 -49 -254 -202 -295
-236 -11 -10 -56 -46 -100 -80 -44 -35 -91 -74 -105 -86 -14 -13 -28 -23 -31
-23 -3 0 -19 -12 -35 -26 -16 -14 -105 -87 -199 -162 -93 -75 -291 -235 -439
-355 -239 -195 -272 -218 -289 -208 -17 11 -285 230 -313 256 -6 5 -30 26 -54
45 -24 19 -85 69 -135 110 -50 41 -135 111 -189 155 -130 105 -290 238 -296
245 -3 3 -27 24 -55 45 -27 22 -137 112 -245 200 -240 196 -226 185 -258 213
-45 39 -140 112 -146 112 -3 0 -6 -62 -6 -138z"/>
<path d="M2214 4480 c-53 -21 -54 -27 -54 -402 l0 -348 70 0 70 0 0 302 c0
206 3 299 10 292 6 -6 56 -132 111 -280 112 -300 126 -324 199 -324 75 0 74
-3 256 488 25 67 50 122 55 122 6 0 9 -118 9 -297 l-2 -298 71 -3 71 -3 0 348
c0 378 0 373 -57 402 -29 15 -102 14 -133 -2 -36 -18 -57 -63 -165 -347 -53
-140 -98 -256 -101 -259 -8 -9 -21 18 -70 149 -125 337 -166 432 -198 451 -33
20 -104 24 -142 9z"/>
<path d="M4280 4430 l0 -50 65 0 65 0 0 50 0 50 -65 0 -65 0 0 -50z"/>
<path d="M6012 4458 c8 -13 48 -79 88 -148 40 -69 104 -175 141 -236 l69 -110
0 -117 0 -117 70 0 70 0 1 98 c0 53 2 105 4 115 3 16 40 82 112 202 96 160
186 312 190 323 4 10 -12 12 -72 10 l-77 -3 -100 -165 c-55 -91 -104 -176
-109 -189 -13 -33 -20 -25 -111 134 -41 72 -88 151 -104 178 l-29 47 -79 0
-78 0 14 -22z"/>
<path d="M7888 4105 l-3 -375 62 0 62 0 3 173 c2 94 2 263 0 375 l-3 202 -59
0 -60 0 -2 -375z"/>
<path d="M8625 4296 c-69 -17 -91 -31 -125 -77 -60 -83 -68 -277 -17 -382 24
-49 35 -60 84 -84 102 -49 299 -43 384 12 133 86 125 436 -11 506 -73 38 -216
49 -315 25z m222 -113 c50 -23 65 -68 61 -178 -2 -76 -7 -99 -24 -122 -33 -45
-80 -64 -145 -59 -120 8 -154 52 -154 191 1 131 26 170 120 186 49 8 99 2 142
-18z"/>
<path d="M3260 4250 l0 -50 155 0 c143 0 157 -2 176 -21 14 -14 19 -30 17 -52
l-3 -32 -147 -6 c-115 -4 -152 -9 -173 -23 -77 -51 -88 -242 -18 -308 24 -22
32 -23 222 -26 184 -3 199 -2 222 17 l24 19 0 214 c0 315 -2 318 -292 318
l-183 0 0 -50z m348 -342 l-3 -73 -111 -3 c-128 -3 -139 3 -139 73 0 69 11 75
142 75 l114 0 -3 -72z"/>
<path d="M3990 4284 c-43 -18 -77 -49 -98 -89 -13 -24 -17 -70 -20 -247 l-4
-218 66 0 66 0 0 180 c0 140 3 188 16 219 19 47 61 71 128 71 l46 0 0 50 0 50
-82 0 c-51 -1 -96 -7 -118 -16z"/>
<path d="M4280 4015 l0 -285 65 0 65 0 0 285 0 285 -65 0 -65 0 0 -285z"/>
<path d="M4565 4275 l-25 -24 0 -261 0 -260 65 0 65 0 2 233 3 232 87 3 c108
3 142 -11 157 -66 6 -20 11 -119 11 -219 l0 -183 65 0 65 0 0 184 c0 271 -13
319 -100 364 -41 20 -58 22 -208 22 -160 0 -163 0 -187 -25z"/>
<path d="M5220 4250 l0 -50 148 0 c173 0 192 -7 192 -70 l0 -38 -142 -4 c-152
-3 -188 -13 -218 -62 -34 -54 -30 -200 7 -250 31 -42 54 -46 252 -46 250 0
231 -21 231 251 0 229 -6 254 -69 296 -32 22 -43 23 -217 23 l-184 0 0 -50z
m342 -345 l-4 -75 -108 0 c-85 0 -112 3 -124 16 -19 19 -22 104 -4 122 8 8 51
12 128 12 l115 0 -3 -75z"/>
<path d="M6830 4078 c0 -212 1 -225 23 -262 43 -77 56 -81 256 -84 177 -3 179
-3 207 22 l29 24 3 261 3 261 -66 0 -65 0 0 -223 c0 -160 -3 -226 -12 -235
-15 -15 -168 -16 -201 -1 -14 6 -29 21 -35 34 -6 12 -12 113 -13 224 l-3 201
-63 0 -63 0 0 -222z"/>
<path d="M7607 4288 c-53 -14 -101 -65 -116 -121 -6 -27 -11 -127 -11 -241 l0
-196 65 0 65 0 0 185 c0 215 8 247 64 270 20 8 56 15 81 15 l46 0 -4 48 -4 47
-74 2 c-41 1 -91 -3 -112 -9z"/>
<path d="M8151 4186 c-95 -107 -101 -116 -101 -157 0 -54 10 -70 130 -198 l96
-102 76 3 77 3 -57 60 c-162 172 -192 208 -192 233 0 17 24 51 78 109 42 47
92 102 110 124 l34 39 -75 0 -75 0 -101 -114z"/>
<path d="M9103 4288 c97 -254 215 -528 234 -545 26 -25 80 -31 114 -13 10 6
25 23 33 38 10 20 179 431 213 520 4 10 -10 12 -62 10 l-68 -3 -78 -208 c-42
-115 -80 -211 -84 -215 -10 -10 -20 12 -97 224 l-73 204 -69 0 c-50 0 -67 -3
-63 -12z"/>
<path d="M9790 4250 l0 -50 153 0 c179 0 197 -6 197 -71 l0 -39 -117 0 c-65 0
-135 -3 -155 -6 -49 -8 -94 -52 -109 -106 -13 -51 -6 -146 15 -187 30 -57 47
-61 260 -61 l195 0 21 27 c21 26 21 35 18 240 -3 195 -5 214 -24 240 -41 56
-71 63 -271 63 l-183 0 0 -50z m350 -345 l0 -75 -109 0 c-86 0 -113 3 -125 16
-19 19 -22 104 -4 122 8 8 50 12 125 12 l113 0 0 -75z"/>
<path d="M4177 3080 l-27 -21 0 -225 0 -224 55 0 55 0 0 200 0 200 90 0 90 0
0 -200 0 -200 55 0 55 0 0 200 0 200 69 0 c63 0 71 -2 90 -26 19 -25 21 -40
21 -200 l0 -174 55 0 55 0 0 190 c0 205 -3 222 -55 270 l-27 25 -277 3 c-270
3 -277 3 -304 -18z"/>
<path d="M5000 3055 l0 -45 139 0 c151 0 156 -2 167 -58 l7 -32 -119 0 c-98 0
-125 -3 -159 -20 -53 -26 -65 -53 -65 -146 0 -73 1 -77 34 -110 l34 -34 169 0
c92 0 173 4 179 8 28 18 34 56 34 209 0 135 -3 164 -20 201 -29 64 -57 72
-245 72 l-155 0 0 -45z m305 -290 l0 -60 -100 -3 c-85 -2 -102 0 -112 15 -19
25 -16 70 7 93 18 18 31 20 113 18 l92 -3 0 -60z"/>
<path d="M5594 3081 c-61 -37 -70 -148 -17 -204 24 -24 93 -51 253 -97 20 -5
25 -13 25 -41 l0 -34 -152 -3 -153 -3 0 -44 0 -45 174 0 c96 0 186 4 200 10
39 14 59 63 54 129 -7 75 -37 99 -176 140 -117 34 -152 53 -152 79 0 37 20 42
167 42 l143 0 0 45 0 45 -167 0 c-148 0 -172 -2 -199 -19z"/>
<path d="M6144 3081 c-66 -40 -71 -155 -10 -209 29 -25 149 -72 185 -72 6 0
29 -7 51 -16 37 -15 41 -20 38 -48 l-3 -31 -152 -3 -153 -3 0 -44 0 -45 185 0
c183 0 186 0 210 24 47 47 46 153 -2 196 -18 16 -69 38 -143 59 -119 36 -150
52 -150 81 0 35 21 40 167 40 l143 0 0 45 0 45 -167 0 c-148 0 -172 -2 -199
-19z"/>
<path d="M6680 3056 l0 -46 134 0 c149 0 166 -6 166 -61 l0 -29 -107 0 c-133
0 -175 -11 -204 -52 -31 -42 -37 -124 -14 -183 27 -72 36 -75 226 -75 228 0
211 -18 207 227 l-3 193 -33 32 -32 33 -170 3 -170 3 0 -45z m300 -291 l0 -65
-98 0 c-110 0 -122 6 -122 59 0 60 20 71 127 71 l93 0 0 -65z"/>
<path d="M7334 3089 c-42 -12 -90 -68 -105 -121 -6 -24 -9 -86 -7 -143 4 -113
20 -154 78 -192 30 -21 45 -23 151 -23 129 0 141 -6 95 -49 -22 -21 -33 -22
-136 -22 -152 1 -160 -1 -160 -50 l0 -39 153 0 c139 0 157 2 197 23 32 15 51
34 65 62 18 37 20 60 20 277 l0 236 -24 26 c-24 26 -27 26 -160 25 -75 0 -150
-5 -167 -10z m234 -236 l3 -153 -91 0 c-82 0 -93 2 -114 23 -20 20 -23 34 -25
111 -2 100 10 149 42 164 12 6 58 10 102 9 l80 -2 3 -152z"/>
<path d="M7936 3090 c-99 -30 -131 -99 -124 -265 5 -115 21 -154 78 -192 31
-22 43 -23 206 -23 l174 0 0 45 0 45 -148 0 c-135 0 -150 2 -170 20 -14 14
-22 33 -22 55 l0 35 133 0 c161 0 203 10 211 48 23 118 -14 201 -103 231 -39
13 -192 13 -235 1z m192 -96 c27 -19 44 -57 36 -79 -5 -12 -28 -15 -120 -15
l-114 0 0 30 c0 19 9 40 25 55 20 21 34 25 87 25 42 0 71 -5 86 -16z"/>
</g>
</svg>
